<?xml version="1.0" encoding="utf-8"?>
<!-- Generator: Adobe Illustrator 19.2.1, SVG Export Plug-In . SVG Version: 6.00 Build 0)  -->
<svg version="1.1" id="Camada_1" xmlns="http://www.w3.org/2000/svg" xmlns:xlink="http://www.w3.org/1999/xlink" x="0px" y="0px"
	 viewBox="0 0 37.7 42.5" style="enable-background:new 0 0 37.7 42.5;" xml:space="preserve">
<style type="text/css">
	.st0{fill:#652D8C;}
	.st1{fill:#642C78;}
	.st2{fill:#272E36;}
	.st3{fill:#33A8E8;}
	.st4{fill:#4EBAEB;}
	.st5{fill:#56C8EF;}
	.st6{fill:#5E79AB;}
	.st7{fill:#A7B9D5;}
	.st8{fill:#EBE55F;}
	.st9{fill:#64BB9B;}
	.st10{fill:#E7E3DA;}
	.st11{fill:#B1D0FE;}
	.st12{fill:#029CC8;}
	.st13{fill:#F3FAFC;}
	.st14{fill:#E81F79;}
	.st15{fill:#DF845D;}
	.st16{fill:#FFFFFF;}
	.st17{fill:#ECE75F;}
	.st18{fill:#009BC8;}
	.st19{fill:#E1007E;}
	.st20{fill:#642B77;}
	.st21{fill-rule:evenodd;clip-rule:evenodd;fill:#0B5AAA;}
	.st22{clip-path:url(#SVGID_2_);}
	.st23{clip-path:url(#SVGID_4_);}
	.st24{fill:#EBE65F;}
	.st25{fill:#009FC5;}
	.st26{opacity:0.64;}
	.st27{clip-path:url(#SVGID_6_);}
	.st28{clip-path:url(#SVGID_8_);fill:#3C2728;}
	.st29{clip-path:url(#SVGID_8_);fill:#EDB096;}
	.st30{clip-path:url(#SVGID_8_);fill:#AEB4C9;}
	.st31{clip-path:url(#SVGID_8_);fill:#674A4D;}
	.st32{clip-path:url(#SVGID_8_);fill:#948689;}
	.st33{clip-path:url(#SVGID_8_);fill:#FBFAFA;}
	.st34{clip-path:url(#SVGID_10_);}
	.st35{clip-path:url(#SVGID_12_);fill:#3C2728;}
	.st36{clip-path:url(#SVGID_12_);fill:#EDB096;}
	.st37{clip-path:url(#SVGID_12_);fill:#AEB4C9;}
	.st38{clip-path:url(#SVGID_12_);fill:#674A4D;}
	.st39{clip-path:url(#SVGID_12_);fill:#948689;}
	.st40{clip-path:url(#SVGID_12_);fill:#FBFAFA;}
	.st41{fill:#E91E79;}
	.st42{fill:#EDE661;}
	.st43{clip-path:url(#SVGID_14_);}
	.st44{fill:#643088;}
	.st45{clip-path:url(#SVGID_16_);}
	.st46{clip-path:url(#SVGID_18_);}
	.st47{clip-path:url(#SVGID_20_);}
	.st48{clip-path:url(#SVGID_22_);fill:#E2C69C;}
	.st49{clip-path:url(#SVGID_22_);fill:#120D09;}
	.st50{clip-path:url(#SVGID_22_);fill:#B1B9BE;}
	.st51{clip-path:url(#SVGID_22_);fill:#93A5AA;}
	.st52{clip-path:url(#SVGID_22_);fill:#736A5F;}
	.st53{clip-path:url(#SVGID_22_);fill:#75532D;}
	.st54{clip-path:url(#SVGID_22_);fill:#FBFAF7;}
	.st55{clip-path:url(#SVGID_22_);fill:#292017;}
	.st56{clip-path:url(#SVGID_22_);fill:#5A4122;}
	.st57{clip-path:url(#SVGID_22_);fill:#413020;}
	.st58{clip-path:url(#SVGID_22_);fill:#E6D9C6;}
	.st59{clip-path:url(#SVGID_22_);fill:#95703C;}
	.st60{clip-path:url(#SVGID_22_);fill:#494943;}
	.st61{clip-path:url(#SVGID_22_);fill:#CDCBC3;}
	.st62{clip-path:url(#SVGID_22_);fill:#BC9652;}
	.st63{clip-path:url(#SVGID_22_);fill:#6288A5;}
	.st64{fill:#E5007E;}
	.st65{opacity:0.81;fill:#565759;}
	.st66{opacity:0.49;fill:#FFFFFF;}
	.st67{opacity:0.36;}
	.st68{clip-path:url(#SVGID_26_);}
	.st69{fill:#FBDFA1;}
	.st70{fill:#FBC780;}
	.st71{fill:#F3BB7B;}
	.st72{fill:#EAAC6C;}
	.st73{fill:#9D6F44;}
	.st74{fill:#4C3C24;}
	.st75{fill:#CA8D55;}
	.st76{fill:#B87E4D;}
	.st77{fill:#8C6339;}
	.st78{fill:#7C5633;}
	.st79{fill:#251E16;}
	.st80{fill:#61482C;}
	.st81{fill:#3B2E1C;}
	.st82{fill:#AA6E39;}
	.st83{fill:#DC9D5F;}
	.st84{fill:#FAECD6;}
	.st85{fill:#FFFFFF;stroke:#000000;stroke-miterlimit:10;}
</style>
<g>
	<g id="XMLID_4_">
		<g>
			<polygon class="st0" points="29,32.3 29,34.1 25.9,34.1 25.9,35.1 28.7,35.1 28.7,36.7 25.9,36.7 25.9,39.5 23.7,39.5 23.7,32.3 
							"/>
			<path class="st0" d="M21.2,33c0.7,0.6,1.1,1.5,1.1,2.7c0,1.5-0.6,2.4-1.1,2.9c-0.7,0.6-1.7,0.9-3,0.9c-0.6,0-1.1,0-1.6-0.1
				l-0.3,0v-7l0.3,0c0.5-0.1,1.2-0.1,1.9-0.1C19.7,32.2,20.5,32.5,21.2,33z"/>
			<path class="st42" d="M15,34.6c0-0.6-0.2-1.1-0.5-1.5c-0.3-0.4-0.7-0.6-1.2-0.8c-0.3-0.1-0.9-0.1-1.8-0.1H8.7v7.2h2.3V37h0.6
				c0.7,0,1.2,0,1.6-0.1c0.3-0.1,0.6-0.2,0.9-0.4c0.3-0.2,0.5-0.4,0.7-0.8C14.9,35.5,15,35.1,15,34.6z M21.2,38.6
				c0.5-0.5,1.1-1.3,1.1-2.9c0-1.2-0.4-2.1-1.1-2.7c-0.7-0.5-1.5-0.8-2.7-0.8c-0.7,0-1.4,0-1.9,0.1l-0.3,0v7l0.3,0
				c0.5,0.1,1,0.1,1.6,0.1C19.5,39.5,20.5,39.2,21.2,38.6z M29,34.1v-1.8h-5.3v7.2h2.2v-2.8h2.8v-1.7h-2.8v-1H29z M37.7,1.8v39.1
				c0,1-0.8,1.7-1.7,1.7H1.8c-1,0-1.8-0.8-1.8-1.7V1.8C0,0.8,0.8,0,1.8,0H36C36.9,0,37.7,0.8,37.7,1.8z"/>
			<path class="st0" d="M14.5,33.2c0.3,0.4,0.5,0.9,0.5,1.5c0,0.5-0.1,0.9-0.3,1.2c-0.2,0.3-0.4,0.6-0.7,0.8
				c-0.3,0.2-0.6,0.3-0.9,0.4C12.8,37,12.2,37,11.5,37h-0.6v2.5H8.7v-7.2h2.8c0.9,0,1.5,0,1.8,0.1C13.8,32.5,14.2,32.8,14.5,33.2z"
				/>
		</g>
	</g>
	<g id="XMLID_3_">
		<g>
			<polygon class="st0" points="35.3,2.4 35.3,29.6 2.4,29.6 2.4,2.4 			"/>
		</g>
	</g>
</g>
</svg>
